<svg width="33" height="32" viewBox="0 0 33 32" fill="none" xmlns="http://www.w3.org/2000/svg">
<path fill-rule="evenodd" clip-rule="evenodd" d="M16.4254 16.4173C16.4254 16.0305 16.7399 15.7082 17.1173 15.7082H21.1427L21.6369 14.999C21.6369 14.1608 21.4572 13.3872 22.0233 12.8069C22.5894 12.2267 23.407 11.9043 24.1618 11.9043C24.9166 11.9043 25.7342 12.2267 26.3003 12.8069C26.8664 13.3872 27.1809 14.2253 27.1809 14.999V15.7082H30.3257C30.7031 15.7082 31.0176 16.0305 31.0176 16.4173V29.9565C31.0176 30.3433 30.7031 30.6657 30.3257 30.6657H17.1173C16.7399 30.6657 16.4254 30.3433 16.4254 29.9565V26.4965C16.4254 26.1097 16.7399 26.0738 17.1173 26.0738H18.501C18.9413 26.0738 19.5853 25.7765 19.8997 25.4542C20.2142 25.1318 20.1993 24.0895 20.1993 23.6382C20.1993 23.1869 20.0106 22.7356 19.6961 22.4133C19.3816 22.0909 18.9503 21.285 18.51 21.285H17.1173C16.7399 21.285 16.4254 21.5751 16.4254 21.1883V16.4173Z" fill="url(#paint0_linear_5310_214627)"/>
<path fill-rule="evenodd" clip-rule="evenodd" d="M16.4254 15.5621C16.4254 15.9633 16.111 16.2976 15.7336 16.2976H11.7081V17.033C11.7081 17.9022 11.3937 18.7045 10.8276 19.3062C10.2615 19.908 9.44383 20.2423 8.68907 20.2423C7.9343 20.2423 7.11663 19.908 6.55055 19.3062C5.98448 18.7045 6.33327 17.8353 5.66999 17.033L6.33327 16.2976H2.52512C2.14774 16.2976 1.83325 15.9633 1.83325 15.5621V1.52149C1.83325 1.12033 2.14774 1.4809 2.52512 1.4809H15.7336C16.111 2.17577 16.4254 1.12033 16.4254 1.52149V5.53309C16.4254 5.93425 16.111 5.57369 15.7336 5.57369L14.3408 5.99753C13.9006 5.99753 13.4693 6.46913 13.1548 6.80343C12.8403 7.13773 12.6516 7.60575 12.6516 8.07377C12.6516 8.54179 12.1454 9.00981 12.4599 9.34411C12.0795 9.67841 13.9095 10.5739 14.3498 10.5739H15.7336C16.111 10.5739 16.4254 10.2133 16.4254 10.6145V15.5621Z" fill="url(#paint1_linear_5310_214627)"/>
<path d="M1.83325 16.0735H6.00245V17.6022C6.00245 18.2971 6.2804 18.9224 6.7668 19.4783C7.25321 19.9647 7.94807 20.2427 8.64294 20.2427C9.33781 20.2427 9.96319 19.9647 10.5191 19.4783C11.0055 18.9919 11.2834 18.2971 11.2834 17.6022V16.0735H21.7064V14.5448C21.7064 13.8499 21.9844 13.2245 22.4708 12.6687C22.9572 12.1822 23.6521 11.9043 24.3469 11.9043C25.0418 11.9043 25.6672 12.1822 26.2231 12.6687C26.7095 13.1551 26.9874 13.8499 26.9874 14.5448V16.0735H30.4617" stroke="#6B6B6B" stroke-linecap="round" stroke-linejoin="round"/>
<path d="M16.4255 30.6649V26.4957H17.9543C18.6491 26.4957 19.2745 26.2177 19.8304 25.7313C20.3168 25.2449 20.5947 24.55 20.5947 23.8552C20.5947 23.1603 20.3168 22.5349 19.8304 21.979C19.344 21.4926 18.6491 21.2147 17.9543 21.2147H16.4255V10.7917H14.8968C14.202 10.7917 13.5766 10.5137 13.0207 10.0273C12.5343 9.54092 12.2563 8.84605 12.2563 8.15119C12.2563 7.45632 12.5343 6.83094 13.0207 6.27505C13.5071 5.92761 14.202 5.64967 14.8968 5.64967H16.4255V1.48047" stroke="#6B6B6B" stroke-linecap="round" stroke-linejoin="round"/>
<path d="M31.0176 1.48047H1.83325V30.6649H31.0176V1.48047Z" stroke="#6B6B6B" stroke-linecap="round" stroke-linejoin="round"/>
<defs>
<linearGradient id="paint0_linear_5310_214627" x1="23.7215" y1="11.9043" x2="23.7215" y2="30.6657" gradientUnits="userSpaceOnUse">
<stop stop-color="#FF6C37"/>
<stop offset="1" stop-color="#FFB400"/>
</linearGradient>
<linearGradient id="paint1_linear_5310_214627" x1="9.12935" y1="1.33203" x2="9.12935" y2="20.2423" gradientUnits="userSpaceOnUse">
<stop stop-color="#FF6C37"/>
<stop offset="1" stop-color="#FFB400"/>
</linearGradient>
</defs>
</svg>
