<svg width="32" height="32" viewBox="0 0 32 32" fill="none" xmlns="http://www.w3.org/2000/svg">
<path d="M23 30L15.9333 31L9 30V19L15.9333 20L23 19V30Z" fill="url(#paint0_linear_5476_204029)" stroke="#6B6B6B" stroke-linecap="round" stroke-linejoin="round"/>
<path d="M15.9333 11C14.6 11 13.3334 10.4667 12.4 9.53333C11.4667 8.6 10.9333 7.33333 10.9333 6C10.9333 4.66667 11.4667 3.4 12.4 2.46667C13.3334 1.53333 14.6 1 15.9333 1C16.6 1 17.2667 1.13333 17.8667 1.4C18.4667 1.66667 19 2 19.4667 2.46667C19.9334 2.93333 20.2667 3.46667 20.5333 4.06667C20.8 4.66667 20.9333 5.33333 20.9333 6C20.9333 7.33333 20.4 8.6 19.4667 9.53333C18.5334 10.4667 17.2667 11 15.9333 11Z" stroke="#6B6B6B" stroke-linecap="round" stroke-linejoin="round"/>
<path d="M13 25.0003L3.00005 27.4669C2.80005 27.5336 2.60005 27.5336 2.46672 27.4669C2.33338 27.4003 2.13338 27.3336 2.00005 27.1336C1.86672 27.0003 1.80005 26.8003 1.80005 26.6003C1.80005 26.4003 1.80005 26.2003 1.86672 26.0669L6.46672 16.1336C6.60005 15.8003 6.86672 15.4669 7.20005 15.2669C7.53338 15.0669 7.86671 14.9336 8.26671 14.9336H23.7334C24.1334 14.9336 24.4667 15.0669 24.8 15.2669C25.1334 15.4669 25.4 15.8003 25.5334 16.1336L30.0667 26.0669C30.1334 26.2669 30.2 26.4003 30.1334 26.6003C30.1334 26.8003 30 26.9336 29.9334 27.1336C29.8 27.2669 29.6667 27.4003 29.4667 27.4669C29.2667 27.5336 29.0667 27.5336 28.9334 27.4669L19 25.0003" stroke="#6B6B6B" stroke-linecap="round" stroke-linejoin="round"/>
<defs>
<linearGradient id="paint0_linear_5476_204029" x1="16" y1="19" x2="16" y2="31" gradientUnits="userSpaceOnUse">
<stop stop-color="#FF6C37"/>
<stop offset="1" stop-color="#FFB400"/>
</linearGradient>
</defs>
</svg>
