<svg width="33" height="32" viewBox="0 0 33 32" fill="none" xmlns="http://www.w3.org/2000/svg">
<path d="M24.9 0.667969V31.3346" stroke="#6B6B6B"/>
<path d="M18.0267 0.667969V12.348L13.4467 9.42797L8.8667 12.348V0.667969" stroke="#6B6B6B"/>
<path d="M18.0267 0.667969V12.348L13.4467 9.42797L8.8667 12.348V0.667969" fill="url(#paint0_linear_5310_214697)"/>
<path d="M18.0267 0.667969V12.348L13.4467 9.42797L8.8667 12.348V0.667969" stroke="#6B6B6B"/>
<path d="M27.1667 0.667969H2.76001V31.3346H27.1667C27.5589 31.3435 27.9491 31.275 28.3148 31.133C28.6806 30.991 29.0148 30.7784 29.2983 30.5072C29.5819 30.2361 29.8092 29.9117 29.9673 29.5526C30.1255 29.1936 30.2114 28.8069 30.22 28.4146V2.8613C30.24 1.24797 28.8733 0.667969 27.1667 0.667969Z" stroke="#6B6B6B"/>
<defs>
<linearGradient id="paint0_linear_5310_214697" x1="13.4467" y1="0.667969" x2="13.4467" y2="12.348" gradientUnits="userSpaceOnUse">
<stop stop-color="#FF6C37"/>
<stop offset="1" stop-color="#FFB400"/>
</linearGradient>
</defs>
</svg>
