<svg width="140" height="120" viewBox="0 0 140 120" fill="none" xmlns="http://www.w3.org/2000/svg">
<g opacity="0.7">
<path opacity="0.7" d="M15.05 72.5999L11.93 79.1699L8 80.7599L4.07 78.8499L3.07 76.0599L3.27 72.0599L1.7 71.8699L1.3 72.0999L1.09 90.9199H25.73V72.6199L15.05 72.5999ZM13.36 85.1699C12.8945 85.1561 12.4433 85.0055 12.0629 84.7369C11.6825 84.4682 11.3896 84.0935 11.2209 83.6594C11.0522 83.2253 11.0152 82.7511 11.1144 82.2961C11.2136 81.8411 11.4446 81.4253 11.7787 81.1009C12.1128 80.7764 12.5351 80.5575 12.9928 80.4716C13.4505 80.3857 13.9234 80.4365 14.3524 80.6178C14.7814 80.799 15.1475 81.1027 15.4049 81.4907C15.6624 81.8788 15.7998 82.3342 15.8 82.7999C15.7961 83.1159 15.7298 83.4281 15.6049 83.7184C15.4801 84.0087 15.2991 84.2716 15.0724 84.4918C14.8456 84.712 14.5777 84.8853 14.2838 85.0016C13.99 85.118 13.676 85.1752 13.36 85.1699V85.1699Z" fill="url(#paint0_linear_1055_172)"/>
</g>
<g style="mix-blend-mode:multiply" opacity="0.3">
<path d="M105.72 109.52C108.27 109.4 107.72 109.52 110.5 109.52C111.86 109.52 109.56 109.52 110.87 109.46C111.47 109.46 111.14 113.82 114.27 114.7C116.186 115.074 118.14 115.215 120.09 115.12C121.483 114.96 122.81 114.439 123.94 113.61C124.56 113.28 124.76 110.01 125.44 110.07C132.95 110.78 137.05 112.07 137.05 113.51C137.05 115.71 125.16 117.51 110.5 117.51C95.84 117.51 84 115.68 84 113.48C84 112.38 86.51 111.35 91.31 110.7" fill="#262626"/>
</g>
<g style="mix-blend-mode:multiply" opacity="0.3">
<path d="M68.73 113.61C68.73 115.83 55.99 117.61 40.29 117.61C24.59 117.61 11.85 115.82 11.85 113.61C11.85 112.51 14.34 111.52 19.49 110.86C20.54 110.73 21.15 115.04 23.07 114.86C24.38 114.75 24.78 116.5 28.07 115.54C35.2 113.46 33.56 109.54 34.26 109.47C36.99 109.35 37.26 109.59 40.32 109.59C41.78 109.59 41.6 109.59 43 109.59C43.65 109.59 44.34 113.14 45.54 113.9C47.2667 114.762 49.1809 115.182 51.11 115.12C53 115.04 53.52 113.3 54.48 112.81C55.14 112.47 56.17 109.67 56.89 109.73C64.91 110.42 68.73 112.18 68.73 113.61Z" fill="#262626"/>
</g>
<path d="M104.15 91.87L110.33 93.18L110.92 110.09C111.84 115.23 116.3 115.7 119.49 115.63C120.344 115.601 121.183 115.4 121.957 115.039C122.731 114.678 123.424 114.163 123.994 113.527C124.563 112.891 124.999 112.146 125.273 111.337C125.547 110.528 125.655 109.672 125.59 108.82C123.79 82.27 124.87 66.24 124.87 66.24" stroke="var(--illustration-stroke-color, #686868)" stroke-linecap="round" stroke-linejoin="round"/>
<path d="M96 46.5C91.92 44.57 91.56 45.4501 87.27 40.4201C80 31.8301 78.5 32 76.73 32.5801C76.73 32.5801 71.07 34.6301 73.6 40.8001C76 46.5601 79.26 54.2901 93.5 62.3801" stroke="var(--illustration-stroke-color, #686868)" stroke-linecap="round" stroke-linejoin="round"/>
<path d="M127.35 71.22H124.69" stroke="var(--illustration-stroke-color, #686868)" stroke-linecap="round" stroke-linejoin="round"/>
<path d="M122.31 45.2L126.31 45.31C127.045 45.2956 127.765 45.5197 128.361 45.9488C128.958 46.3779 129.4 46.9888 129.62 47.6899L129.57 52.15" stroke="var(--illustration-stroke-color, #686868)" stroke-linecap="round" stroke-linejoin="round"/>
<path d="M123.33 47.9299C122.07 60.1699 124.74 65.9299 124.74 65.9299C126.74 68.1399 127.64 72.4399 129.07 76.0799C130.37 79.3699 133.42 81.4399 136.28 79.6499L136.7 79.4899C139.04 78.0199 139.56 74.2099 138.96 71.2999C137.63 64.8199 133.23 51.8999 121.23 46.4199" stroke="var(--illustration-stroke-color, #686868)" stroke-linecap="round" stroke-linejoin="round"/>
<path d="M117.74 49C117.74 49 115.74 63.74 124.95 67" stroke="var(--illustration-stroke-color, #686868)" stroke-linecap="round" stroke-linejoin="round"/>
<path d="M110.32 97.8499C110.32 97.8499 90.91 105.21 91.85 81.8499C91.85 81.8499 94.66 54.75 95.76 46.7" stroke="var(--illustration-stroke-color, #686868)" stroke-linecap="round" stroke-linejoin="round"/>
<path d="M125 91.5C125.432 91.329 125.399 91.4601 125.77 91.1799C126.611 90.5748 127.273 89.7545 127.688 88.8051C128.102 87.8557 128.254 86.8122 128.126 85.7841C127.998 84.7561 127.596 83.7814 126.961 82.9625C126.327 82.1435 125.964 81.8806 125 81.5" stroke="var(--illustration-stroke-color, #686868)" stroke-linecap="round" stroke-linejoin="round"/>
<path d="M108.67 51.35C118.854 51.35 127.11 42.933 127.11 32.55C127.11 22.167 118.854 13.75 108.67 13.75C98.4859 13.75 90.23 22.167 90.23 32.55C90.23 42.933 98.4859 51.35 108.67 51.35Z" stroke="var(--illustration-stroke-color, #686868)" stroke-linecap="round" stroke-linejoin="round"/>
<path d="M35.91 51.35C46.0941 51.35 54.35 42.933 54.35 32.55C54.35 22.167 46.0941 13.75 35.91 13.75C25.7259 13.75 17.47 22.167 17.47 32.55C17.47 42.933 25.7259 51.35 35.91 51.35Z" stroke="var(--illustration-stroke-color, #686868)" stroke-linecap="round" stroke-linejoin="round"/>
<path d="M49.91 45.4099C54.6709 43.9506 58.8048 40.9365 61.65 36.8499C63.41 34.3699 67.57 31.6399 70.72 35.0699C72.65 36.6299 73.72 40.6299 72.72 42.9099C70.39 48.0099 65.27 55.7399 51.46 60.9099" stroke="var(--illustration-stroke-color, #686868)" stroke-linecap="round" stroke-linejoin="round"/>
<path d="M22.11 47.9998C24.82 60.6398 21 63.8498 21 63.8498L17.45 68.6598C15.45 70.8798 14.83 72.5198 13.45 76.1598C12.1 79.4498 9 82.2698 6.18 80.4798L5.09 79.8298C2.75 78.3598 2.91 74.2898 3.51 71.3798C4.84 64.8998 11.82 52.3198 23.82 46.8398" stroke="var(--illustration-stroke-color, #686868)" stroke-linecap="round" stroke-linejoin="round"/>
<path d="M27.91 49.3599C27.91 49.3599 30.22 63.72 21 67" stroke="var(--illustration-stroke-color, #686868)" stroke-linecap="round" stroke-linejoin="round"/>
<path d="M20.82 72.3101C20.76 67.5001 20.71 64.3101 20.71 64.3101" stroke="var(--illustration-stroke-color, #686868)" stroke-linecap="round" stroke-linejoin="round"/>
<path d="M49.57 45C50.44 51.31 54.5 91.26 56.16 107.47C56.2607 108.377 56.1702 109.295 55.8943 110.164C55.6185 111.034 55.1635 111.836 54.5586 112.519C53.9537 113.203 53.2124 113.751 52.3825 114.13C51.5525 114.509 50.6524 114.71 49.74 114.72V114.72C48.1505 114.707 46.6209 114.112 45.4412 113.047C44.2615 111.981 43.5138 110.52 43.34 108.94L41.34 89.11L35.16 90.42L33.66 110.09C33.25 113.31 29.19 115.7 26 115.63C25.1449 115.6 24.3047 115.398 23.53 115.035C22.7553 114.671 22.062 114.155 21.4921 113.517C20.9222 112.879 20.4873 112.132 20.2137 111.321C19.9401 110.511 19.8334 109.653 19.9 108.8C20.39 101.58 20.28 97.02 20.44 91.29" stroke="var(--illustration-stroke-color, #686868)" stroke-linecap="round" stroke-linejoin="round"/>
<path d="M45.75 48.3398C45.75 48.3398 47.14 60.1298 51.75 64.6798" stroke="var(--illustration-stroke-color, #686868)" stroke-linecap="round" stroke-linejoin="round"/>
<path d="M99 48.5C99.31 48.81 98.5 59.86 94 63.5" stroke="var(--illustration-stroke-color, #686868)" stroke-linecap="round" stroke-linejoin="round"/>
<path d="M68.22 27.4399L65.3 20.3499" stroke="var(--illustration-stroke-color, #686868)" stroke-linecap="round" stroke-linejoin="round"/>
<path d="M72.37 26.2299L72.78 19.6399" stroke="var(--illustration-stroke-color, #686868)" stroke-linecap="round" stroke-linejoin="round"/>
<path d="M75.37 27.0199L79.75 21.1899" stroke="var(--illustration-stroke-color, #686868)" stroke-linecap="round" stroke-linejoin="round"/>
<path d="M15.01 72.6199H26.31V90.9199H0.669998L0.879998 71.8999L3.33 71.9199" stroke="var(--illustration-stroke-color, #686868)" stroke-linecap="round" stroke-linejoin="round"/>
<path d="M13.36 85.1699C14.7076 85.1699 15.8 84.1088 15.8 82.7999C15.8 81.491 14.7076 80.4299 13.36 80.4299C12.0124 80.4299 10.92 81.491 10.92 82.7999C10.92 84.1088 12.0124 85.1699 13.36 85.1699Z" stroke="var(--illustration-stroke-color, #686868)" stroke-linecap="round" stroke-linejoin="round"/>
<path d="M52.28 23.9999C49.7148 23.5184 47.0908 23.4341 44.5 23.7499C37.14 24.3399 34.09 27.3698 32.87 29.3798C32.3291 30.6392 32.1491 32.0241 32.35 33.3799C32.83 37.2399 34.5 46.6498 50.18 44.2598" stroke="var(--illustration-stroke-color, #686868)" stroke-linecap="round" stroke-linejoin="round"/>
<path d="M91.59 25.18C93.37 24.65 95.44 24.43 100.06 24.76C107.34 25.29 110.35 28.16 111.55 30.07C112.078 31.2694 112.252 32.595 112.05 33.89C111.55 37.56 109.97 46.66 94.45 44.45" stroke="var(--illustration-stroke-color, #686868)" stroke-linecap="round" stroke-linejoin="round"/>
<path d="M25.39 37.9599C26.9806 37.9599 28.27 36.6705 28.27 35.08C28.27 33.4894 26.9806 32.2 25.39 32.2C23.7994 32.2 22.51 33.4894 22.51 35.08C22.51 36.6705 23.7994 37.9599 25.39 37.9599Z" stroke="var(--illustration-stroke-color, #686868)" stroke-linecap="round" stroke-linejoin="round"/>
<path d="M118.38 37.9599C119.971 37.9599 121.26 36.6705 121.26 35.08C121.26 33.4894 119.971 32.2 118.38 32.2C116.789 32.2 115.5 33.4894 115.5 35.08C115.5 36.6705 116.789 37.9599 118.38 37.9599Z" stroke="var(--illustration-stroke-color, #686868)" stroke-linecap="round" stroke-linejoin="round"/>
<path d="M44.23 56.6099H40.16C39.9225 56.6099 39.73 56.8024 39.73 57.0399V61.2499C39.73 61.4873 39.9225 61.6799 40.16 61.6799H44.23C44.4675 61.6799 44.66 61.4873 44.66 61.2499V57.0399C44.66 56.8024 44.4675 56.6099 44.23 56.6099Z" stroke="var(--illustration-stroke-color, #686868)" stroke-linecap="round" stroke-linejoin="round"/>
<path d="M113.28 55.6899H109.21C108.973 55.6899 108.78 55.8825 108.78 56.1199V60.3299C108.78 60.5674 108.973 60.7599 109.21 60.7599H113.28C113.517 60.7599 113.71 60.5674 113.71 60.3299V56.1199C113.71 55.8825 113.517 55.6899 113.28 55.6899Z" stroke="var(--illustration-stroke-color, #686868)" stroke-linecap="round" stroke-linejoin="round"/>
<path d="M33.68 11.27L33.76 13.78" stroke="var(--illustration-stroke-color, #686868)" stroke-linecap="round" stroke-linejoin="round"/>
<path d="M33.7 11.11C35.1801 11.11 36.38 9.90113 36.38 8.40996C36.38 6.91879 35.1801 5.70996 33.7 5.70996C32.2199 5.70996 31.02 6.91879 31.02 8.40996C31.02 9.90113 32.2199 11.11 33.7 11.11Z" fill="#FF8853"/>
<path d="M33.7 11.11C35.1801 11.11 36.38 9.90113 36.38 8.40996C36.38 6.91879 35.1801 5.70996 33.7 5.70996C32.2199 5.70996 31.02 6.91879 31.02 8.40996C31.02 9.90113 32.2199 11.11 33.7 11.11Z" stroke="var(--illustration-stroke-color, #686868)" stroke-linecap="round" stroke-linejoin="round"/>
<path d="M33.68 11.27L33.76 13.78" stroke="var(--illustration-stroke-color, #686868)" stroke-linecap="round" stroke-linejoin="round"/>
<path d="M109.68 11.27L109.76 13.78" stroke="var(--illustration-stroke-color, #686868)" stroke-linecap="round" stroke-linejoin="round"/>
<path d="M109.7 11.11C111.18 11.11 112.38 9.90113 112.38 8.40996C112.38 6.91879 111.18 5.70996 109.7 5.70996C108.22 5.70996 107.02 6.91879 107.02 8.40996C107.02 9.90113 108.22 11.11 109.7 11.11Z" fill="#FF8853"/>
<path d="M109.7 11.11C111.18 11.11 112.38 9.90113 112.38 8.40996C112.38 6.91879 111.18 5.70996 109.7 5.70996C108.22 5.70996 107.02 6.91879 107.02 8.40996C107.02 9.90113 108.22 11.11 109.7 11.11Z" stroke="var(--illustration-stroke-color, #686868)" stroke-linecap="round" stroke-linejoin="round"/>
<defs>
<linearGradient id="paint0_linear_1055_172" x1="1.09" y1="81.4199" x2="25.73" y2="81.4199" gradientUnits="userSpaceOnUse">
<stop stop-color="#FF7002"/>
<stop offset="0.3" stop-color="#FE7304"/>
<stop offset="0.5" stop-color="#FC7C0A"/>
<stop offset="0.68" stop-color="#F88B15"/>
<stop offset="0.84" stop-color="#F3A125"/>
<stop offset="0.98" stop-color="#ECBD39"/>
<stop offset="1" stop-color="#EBC03B"/>
</linearGradient>
</defs>
</svg>
